:SAMPLES-PER-SECOND 30
:FRAME-RANGE 1-3535
:FULLY-SPECIFIED
:DEGREES
2652
root  -52.8643 35.6214 87.6937 159.345 81.2065 160.5
RightUpLeg  -10.4937 -9.31944 -6.38041
RightLeg  79.92 23.4875 70.4007
RightFoot  142.81 56.7373 -13.3641
RightToes  1.22775e-009 1.2921e-014 -6.02303e-014
Spine  12.3157 3.56865 -6.21761
Spine1  -1.35093 2.80147 -7.68058
HEad  -17.592 41.4632 -13.1092
LeftShoulder1  0.798218 1.36 -31.1547
LeftArm  3.97436 21.0216 -24.3856
LeftForeArm  8.48899 -3.95191 -16.9368
LeftHand  0.574155 -2.06367 -8.78058
RightShoulder  6.11353 7.8705 47.076
RightArm  36.9958 -4.01711 18.7044
RightForeArm  -9.93599 22.039 6.07542
RightHand  0.419517 5.61132 4.09561
LeftUpLeg  -17.3653 19.2789 -18.5135
LeftLeg  34.7008 17.01 11.7504
LeftFoot  -24.152 1.1449 8.88192
LeftToes  2.52163e-011 5.65494e-011 -1.09494e-012
2653
root  -51.8896 35.5222 87.8275 163.544 76.7628 164.994
RightUpLeg  -14.6921 -5.81008 -6.63957
RightLeg  78.7354 20.2234 64.654
RightFoot  144.977 55.7307 -11.8855
RightToes  1.22775e-009 1.2921e-014 -6.02303e-014
Spine  12.6431 3.13202 -7.79652
Spine1  -1.89699 1.88517 -7.19982
HEad  -16.1736 39.9508 -12.2799
LeftShoulder1  0.934114 1.03854 -31.8199
LeftArm  8.31317 17.7482 -27.2213
LeftForeArm  7.07607 -7.03276 -16.135
LeftHand  0.559317 -2.55913 -7.97337
RightShoulder  5.56721 6.94172 46.6779
RightArm  36.7151 -4.60547 18.3883
RightForeArm  -5.85754 19.7514 7.7201
RightHand  0.363382 5.98267 3.36934
LeftUpLeg  -15.0152 15.8233 -17.907
LeftLeg  35.9901 16.4883 11.6175
LeftFoot  -25.5838 1.16249 8.0556
LeftToes  2.52163e-011 5.65494e-011 -1.09494e-012
2654
root  -50.8385 35.4901 87.9308 166.658 72.071 167.88
RightUpLeg  -17.5901 -3.5019 -7.58642
RightLeg  75.1943 19.4216 55.461
RightFoot  150.476 61.7602 -10.1638
RightToes  1.22775e-009 1.2921e-014 -6.02303e-014
Spine  12.2652 2.7197 -9.76887
Spine1  -2.44476 0.974257 -6.08918
HEad  -14.8572 37.7882 -11.463
LeftShoulder1  1.07446 0.701165 -32.2719
LeftArm  12.4868 14.6057 -30.5886
LeftForeArm  5.95234 -10.3861 -14.6266
LeftHand  0.546214 -3.04941 -7.2901
RightShoulder  4.93607 5.86995 46.1109
RightArm  33.0442 -5.19581 17.8609
RightForeArm  0.442174 16.5004 10.3779
RightHand  0.256815 5.75264 2.34497
LeftUpLeg  -12.8018 12.3048 -17.0444
LeftLeg  36.5856 14.9995 10.2632
LeftFoot  -26.8274 1.14467 7.21822
LeftToes  2.52163e-011 5.65494e-011 -1.09494e-012
2655
root  -49.6875 35.7303 87.9564 170.28 67.3672 171.102
RightUpLeg  -18.9811 -2.15109 -8.87935
RightLeg  67.3398 18.0049 39.053
RightFoot  137.152 80.9182 -26.2825
RightToes  1.22775e-009 1.2921e-014 -6.02303e-014
Spine  11.7059 1.97003 -11.008
Spine1  -2.94804 0.00862088 -4.64272
HEad  -14.7522 36.0764 -10.8537
LeftShoulder1  1.12601 0.552212 -32.086
LeftArm  20.7343 12.236 -34.2422
LeftForeArm  1.54176 -15.5644 -11.3335
LeftHand  0.5231 -3.7569 -6.38062
RightShoulder  4.57406 5.13315 46.3881
RightArm  28.1308 -5.54598 16.4635
RightForeArm  4.71337 12.766 13.1178
RightHand  0.206069 5.60137 1.85129
LeftUpLeg  -9.78216 9.05868 -15.4903
LeftLeg  34.7131 14.1561 8.38573
LeftFoot  -27.106 1.11324 6.85132
LeftToes  2.52163e-011 5.65494e-011 -1.09494e-012
2656
root  -48.5154 36.1274 87.8916 174.188 63.2363 174.819
RightUpLeg  -18.9733 -0.656694 -10.1857
RightLeg  56.2248 11.3528 17.2931
RightFoot  -3.45057 63.5359 -166.517
RightToes  1.22775e-009 1.2921e-014 -6.02303e-014
Spine  11.4356 1.32265 -10.7071
Spine1  -3.62214 -0.584251 -3.3173
HEad  -14.7272 33.9147 -10.4183
LeftShoulder1  1.2413 0.25766 -32.1805
LeftArm  28.8177 10.1757 -37.0348
LeftForeArm  -2.06366 -20.3425 -7.08929
LeftHand  0.501567 -4.31153 -5.72012
RightShoulder  4.1576 4.40819 46.0257
RightArm  21.6889 -6.22742 15.9082
RightForeArm  8.86484 8.31916 15.3689
RightHand  0.21413 5.42261 1.97892
LeftUpLeg  -6.26739 7.78834 -12.8288
LeftLeg  31.3528 11.882 5.67317
LeftFoot  -27.1126 1.09093 6.68775
LeftToes  2.52163e-011 5.65494e-011 -1.09494e-012
2657
root  -47.5421 37.7751 87.2932 -175.7 59.0688 -174.242
RightUpLeg  -22.2292 -3.94265 -8.21601
RightLeg  48.3386 -9.13492 -11.1404
RightFoot  0.898039 -1.31572 12.2855
RightToes  1.22775e-009 1.2921e-014 -6.02303e-014
Spine  11.367 -0.369882 -2.38492
Spine1  -3.51572 -0.917744 -0.00569254
HEad  -14.8869 32.2077 -10.1894
LeftShoulder1  1.29118 0.107583 -31.9617
LeftArm  30.0831 8.27863 -39.2185
LeftForeArm  0.995884 -24.2949 -5.14376
LeftHand  0.475264 -4.57093 -5.2478
RightShoulder  4.00843 4.05974 46.4341
RightArm  17.9945 -6.59683 14.4344
RightForeArm  10.7139 4.76069 16.6839
RightHand  0.240159 5.36906 2.27227
LeftUpLeg  2.45732 5.75719 -6.35013
LeftLeg  15.9414 9.91618 1.64699
LeftFoot  -20.5173 0.718963 7.40903
LeftToes  2.52163e-011 5.65494e-011 -1.09494e-012
2658
root  -46.5461 37.8407 87.0873 -174.864 55.5502 -173.972
RightUpLeg  -22.7916 -4.48908 -7.73159
RightLeg  37.3621 -10.218 -8.51723
RightFoot  0.564003 -1.37925 13.2108
RightToes  1.22775e-009 1.2921e-014 -6.02303e-014
Spine  10.8634 -0.845339 -1.95477
Spine1  -3.76934 -1.2952 0.716608
HEad  -15.4895 30.2415 -10.3199
LeftShoulder1  1.31076 0.0260212 -31.6336
LeftArm  26.626 6.93623 -40.6674
LeftForeArm  7.62679 -27.9446 -5.62473
LeftHand  0.478868 -4.80338 -5.15385
RightShoulder  3.84176 3.73677 46.4946
RightArm  14.2703 -7.01023 13.5863
RightForeArm  14.3202 1.08067 17.3375
RightHand  0.253566 5.426 2.40049
LeftUpLeg  4.16675 5.69043 -4.73338
LeftLeg  14.4143 5.85898 0.799357
LeftFoot  -20.7971 0.718804 7.16738
LeftToes  2.52163e-011 5.65494e-011 -1.09494e-012
2659
root  -45.453 37.8125 86.8337 -175.017 53.4958 -174.247
RightUpLeg  -22.3463 -4.84152 -7.2245
RightLeg  26.2759 -9.84489 -5.46207
RightFoot  -0.275751 -1.34743 13.8285
RightToes  1.22775e-009 1.2921e-014 -6.02303e-014
Spine  10.5665 -0.696793 -1.96667
Spine1  -3.6758 -1.14896 1.52072
HEad  -15.8881 28.7409 -10.6748
LeftShoulder1  1.33001 -0.0417169 -31.4568
LeftArm  23.4817 6.12715 -41.4656
LeftForeArm  12.257 -31.3906 -6.20068
LeftHand  0.538913 -5.32999 -5.51652
RightShoulder  3.74985 3.55134 46.5801
RightArm  13.4915 -7.33019 12.8326
RightForeArm  15.8319 -1.15803 17.6572
RightHand  0.264652 5.32084 2.55031
LeftUpLeg  6.62754 6.05042 -3.34162
LeftLeg  12.8628 3.01059 0.13939
LeftFoot  -21.3974 0.708404 6.58023
LeftToes  2.52163e-011 5.65494e-011 -1.09494e-012
